#!OML:ASF E:\motion texture\Top Level 1\Subject 1\Session 1\male.ASF
:FULLY-SPECIFIED
:DEGREES
202
root 30.055 17.6366 6.17599 201.634 -87.7596 -194.392
lowerback -0.71648 -0.964571 -1.02897
upperback -0.685747 -1.29092 1.86961
thorax -0.234948 -0.643329 2.48603
lowerneck -17.0417 -3.99537 -8.07128
upperneck 28.9784 -5.52663 5.02866
head 12.8763 -2.90053 2.37959
rclavicle -1.15792e-014 1.98785e-015
rhumerus -36.329 -14.8565 -74.1373
rradius 25.5726
rwrist 0.602756
rhand -14.4506 -37.9656
rfingers 7.12502
rthumb 11.6946 -67.6192
lclavicle -1.15792e-014 1.98785e-015
lhumerus -37.8984 22.4759 73.5415
lradius 24.9616
lwrist -27.872
lhand -8.99259 24.4474
lfingers 7.12502
lthumb 16.9536 53.7274
rfemur -32.0287 -5.71517 17.0487
rtibia 49.3209
rfoot -3.32387 -20.1299
rtoes 9.91573
lfemur -7.83188 -5.23668 -23.1511
ltibia 14.6796
lfoot -11.173 2.17241
ltoes 0.600804
203
root 29.9281 17.6304 6.17406 207.078 -88.0448 -199.859
lowerback -0.723094 -1.0446 -1.12012
upperback -0.685089 -1.39701 1.87111
thorax -0.222998 -0.696107 2.53792
lowerneck -17.0613 -3.97413 -8.04201
upperneck 28.9343 -5.50194 5.04613
head 12.8596 -2.88206 2.38505
rclavicle 2.98177e-015 1.98785e-014
rhumerus -37.4479 -16.6127 -72.3841
rradius 24.1374
rwrist 2.09738
rhand -14.6925 -38.5234
rfingers 7.12502
rthumb 11.4613 -68.1901
lclavicle 2.98177e-015 1.98785e-014
lhumerus -37.2477 21.4975 74.2985
lradius 25.9854
lwrist -26.7134
lhand -9.32561 24.5233
lfingers 7.12502
lthumb 16.633 53.8306
rfemur -32.5244 -5.83758 16.9954
rtibia 47.8384
rfoot -3.65709 -20.0421
rtoes 9.73504
lfemur -7.24122 -5.27708 -23.3139
ltibia 14.4925
lfoot -11.4403 1.8886
ltoes 0.456552
204
root 29.801 17.6235 6.17141 214.265 -88.3055 -207.063
lowerback -0.733587 -1.12124 -1.20925
upperback -0.686757 -1.49857 1.87261
thorax -0.211221 -0.746628 2.5886
lowerneck -17.0803 -3.95369 -8.01233
upperneck 28.8891 -5.47832 5.0631
head 12.8425 -2.86405 2.39006
rclavicle -2.23633e-015 4.77083e-015
rhumerus -38.6532 -18.4806 -70.4352
rradius 22.7488
rwrist 3.71386
rhand -14.8891 -39.0617
rfingers 7.12502
rthumb 11.2717 -68.7389
lclavicle -2.23633e-015 4.77083e-015
lhumerus -36.6304 20.5402 75.0026
lradius 27.0384
lwrist -25.591
lhand -9.66103 24.5924
lfingers 7.12502
lthumb 16.31 53.9265
rfemur -32.9803 -5.93501 16.932
rtibia 46.296
rfoot -3.92995 -19.9267
rtoes 9.53734
lfemur -6.66237 -5.31311 -23.4667
ltibia 14.319
lfoot -11.7047 1.60389
ltoes 0.306276
205
root 29.6737 17.616 6.16805 223.729 -88.5278 -216.541
lowerback -0.748294 -1.19382 -1.29658
upperback -0.688456 -1.5947 1.87465
thorax -0.197137 -0.794484 2.63871
lowerneck -17.1036 -3.93446 -7.98194
upperneck 28.8437 -5.45542 5.07796
head 12.8262 -2.84641 2.39394
rclavicle 8.10048e-015 -6.36111e-015
rhumerus -39.9595 -20.4555 -68.2699
rradius 21.4163
rwrist 5.46277
rhand -15.0478 -39.5866
rfingers 7.12502
rthumb 11.1187 -69.272
lclavicle 8.10048e-015 -6.36111e-015
lhumerus -36.0413 19.6072 75.6584
lradius 28.1162
lwrist -24.5034
lhand -9.99918 24.6512
lfingers 7.12502
lthumb 15.9844 54.0118
rfemur -33.3969 -6.00437 16.8586
rtibia 44.7081
rfoot -4.14161 -19.7879
rtoes 9.32799
lfemur -6.09355 -5.34322 -23.6092
ltibia 14.1578
lfoot -11.9643 1.31978
ltoes 0.139624
206
root 29.546 17.6078 6.16405 235.932 -88.6965 -228.754
lowerback -0.777516 -1.26341 -1.38017
upperback -0.684918 -1.68682 1.87741
thorax -0.169577 -0.840559 2.68697
lowerneck -17.1305 -3.91602 -7.95144
upperneck 28.7937 -5.43244 5.09212
head 12.8088 -2.82854 2.39747
rclavicle 3.08116e-015 -1.98785e-014
rhumerus -41.3824 -22.5321 -65.8677
rradius 20.1487
rwrist 7.35827
rhand -15.1679 -40.0896
rfingers 7.12502
rthumb 11.0028 -69.7813
lclavicle 3.08116e-015 -1.98785e-014
lhumerus -35.4712 18.7046 76.2693
lradius 29.2136
lwrist -23.4525
lhand -10.3327 24.6981
lfingers 7.12502
lthumb 15.6633 54.0841
rfemur -33.7744 -6.04746 16.775
rtibia 43.0883
rfoot -4.29758 -19.631
rtoes 9.11908
lfemur -5.53645 -5.37095 -23.741
ltibia 14.0123
lfoot -12.2203 1.03806
ltoes -0.0418831
207
root 29.4178 17.5991 6.15941 250.625 -88.7901 -243.453
lowerback -0.811076 -1.3294 -1.46093
upperback -0.683085 -1.77406 1.88046
thorax -0.141422 -0.884235 2.73379
lowerneck -17.1576 -3.89806 -7.92137
upperneck 28.7444 -5.40992 5.10569
head 12.7918 -2.81102 2.40076
rclavicle -2.48481e-014 2.94201e-014
rhumerus -42.9573 -24.6937 -63.2011
rradius 18.9548
rwrist 9.40809
rhand -15.2461 -40.5703
rfingers 7.12502
rthumb 10.9274 -70.266
lclavicle -2.48481e-014 2.94201e-014
lhumerus -34.9293 17.8298 76.8351
lradius 30.3268
lwrist -22.4347
lhand -10.6596 24.737
lfingers 7.12502
lthumb 15.3484 54.1474
rfemur -34.114 -6.06147 16.6799
rtibia 41.4513
rfoot -4.40188 -19.4641
rtoes 8.91123
lfemur -4.9901 -5.39316 -23.8624
ltibia 13.8812
lfoot -12.4708 0.756999
ltoes -0.239949
208
root 29.2891 17.5898 6.15414 266.344 -88.7956 -259.176
lowerback -0.848161 -1.39227 -1.53817
upperback -0.683133 -1.85711 1.88377
thorax -0.113326 -0.925837 2.77877
lowerneck -17.1859 -3.88018 -7.88993
upperneck 28.6967 -5.38704 5.11636
head 12.7755 -2.79357 2.40274
rclavicle 9.49197e-015 -2.14687e-014
rhumerus -44.7126 -26.9194 -60.2469
rradius 17.8431
rwrist 11.6153
rhand -15.2967 -41.0305
rfingers 7.12502
rthumb 10.8786 -70.7287
lclavicle 9.49197e-015 -2.14687e-014
lhumerus -34.4149 16.9833 77.3585
lradius 31.4512
lwrist -21.4478
lhand -10.9769 24.771
lfingers 7.12502
lthumb 15.0427 54.2045
rfemur -34.416 -6.04756 16.5733
rtibia 39.8111
rfoot -4.45813 -19.2961
rtoes 8.7059
lfemur -4.45417 -5.41349 -23.974
ltibia 13.7652
lfoot -12.7151 0.479211
ltoes -0.456428
209
root 29.1599 17.5802 6.14827 280.772 -88.7151 -273.603
lowerback -0.891967 -1.45181 -1.61173
upperback -0.683125 -1.93563 1.8869
thorax -0.0815847 -0.965257 2.82123
lowerneck -17.2149 -3.86199 -7.85859
upperneck 28.6495 -5.3634 5.12606
head 12.7595 -2.77592 2.40449
rclavicle -2.78299e-015 1.59028e-014
rhumerus -46.6722 -29.1819 -56.987
rradius 16.8195
rwrist 13.9765
rhand -15.3287 -41.4757
rfingers 7.12502
rthumb 10.8477 -71.1755
lclavicle -2.78299e-015 1.59028e-014
lhumerus -33.9237 16.1686 77.8419
lradius 32.5813
lwrist -20.4912
lhand -11.283 24.7995
lfingers 7.12502
lthumb 14.7479 54.2548
rfemur -34.6827 -6.00387 16.4546
rtibia 38.1821
rfoot -4.47418 -19.1312
rtoes 8.50511
lfemur -3.92871 -5.43045 -24.0764
ltibia 13.665
lfoot -12.9528 0.206154
ltoes -0.692975
210
root 29.0301 17.5703 6.14176 292.615 -88.5687 -285.443
lowerback -0.937367 -1.50812 -1.6822
upperback -0.686666 -2.0098 1.89095
thorax -0.0527269 -1.00248 2.86286
lowerneck -17.2442 -3.84333 -7.82706
upperneck 28.6066 -5.33858 5.13261
head 12.7452 -2.75827 2.4052
rclavicle 9.54166e-015 -8.74653e-015
rhumerus -48.8638 -31.4329 -53.4128
rradius 15.8941
rwrist 16.466
rhand -15.3444 -41.9086
rfingers 7.12502
rthumb 10.8326 -71.6092
lclavicle 9.54166e-015 -8.74653e-015
lhumerus -33.4596 15.3856 78.2882
lradius 33.7118
lwrist -19.5637
lhand -11.5734 24.818
lfingers 7.12502
lthumb 14.4681 54.2936
rfemur -34.9135 -5.92797 16.3232
rtibia 36.5724
rfoot -4.4489 -18.9773
rtoes 8.31981
lfemur -3.41345 -5.44658 -24.1691
ltibia 13.5805
lfoot -13.1818 -0.0606156
ltoes -0.95572
211
root 28.8996 17.5601 6.13465 301.812 -88.3785 -294.634
lowerback -0.986884 -1.5619 -1.74913
upperback -0.691735 -2.08054 1.89659
thorax -0.0232277 -1.03802 2.90396
lowerneck -17.274 -3.82422 -7.79627
upperneck 28.5671 -5.31241 5.13652
head 12.7322 -2.74052 2.40526
rclavicle 6.41081e-015 8.74653e-015
rhumerus -51.3011 -33.6334 -49.5209
rradius 15.0684
rwrist 19.065
rhand -15.3455 -42.3337
rfingers 7.12502
rthumb 10.8315 -72.0344
lclavicle 6.41081e-015 8.74653e-015
lhumerus -33.0174 14.6364 78.7021
lradius 34.8363
lwrist -18.6647
lhand -11.8488 24.8343
lfingers 7.12502
lthumb 14.2027 54.3287
rfemur -35.1104 -5.82183 16.1801
rtibia 34.9918
rfoot -4.37788 -18.84
rtoes 8.15135
lfemur -2.90824 -5.46246 -24.2509
ltibia 13.5124
lfoot -13.4032 -0.322447
ltoes -1.22969
212
root 28.7683 17.5498 6.12695 308.834 -88.1622 -301.647
lowerback -1.0305 -1.61303 -1.81219
upperback -0.704955 -2.1478 1.90504
thorax -0.00547772 -1.07163 2.94606
lowerneck -17.3022 -3.80449 -7.76726
upperneck 28.5366 -5.28463 5.13606
head 12.7224 -2.72314 2.40429
rclavicle 2.42517e-014 5.56597e-015
rhumerus -53.9915 -35.7206 -45.3279
rradius 14.3451
rwrist 21.731
rhand -15.3326 -42.7455
rfingers 7.12502
rthumb 10.844 -72.4455
lclavicle 2.42517e-014 5.56597e-015
lhumerus -32.6065 13.9207 79.086
lradius 35.9517
lwrist -17.7928
lhand -12.1071 24.846
lfingers 7.12502
lthumb 13.9538 54.3578
rfemur -35.275 -5.68567 16.0261
rtibia 33.4503
rfoot -4.26739 -18.7269
rtoes 7.99037
lfemur -2.41301 -5.47968 -24.3217
ltibia 13.4609
lfoot -13.613 -0.577448
ltoes -1.53454
